<?xml version="1.0" encoding="utf-8"?>
<!-- Generator: Adobe Illustrator 25.4.1, SVG Export Plug-In . SVG Version: 6.00 Build 0)  -->
<svg version="1.1" id="Layer_1" xmlns="http://www.w3.org/2000/svg" xmlns:xlink="http://www.w3.org/1999/xlink" x="0px" y="0px"
	 viewBox="0 0 1024 482.4" style="enable-background:new 0 0 1024 482.4;" xml:space="preserve">
<style type="text/css">
	.st0{fill-rule:evenodd;clip-rule:evenodd;fill-opacity:0;}
	.st1{fill:url(#SVGID_1_);}
	.st2{fill:#99CC00;}
	.st3{fill:url(#SVGID_00000075841767254393639820000005114714340142212238_);}
	.st4{fill:#003366;}
	.st5{fill:url(#SVGID_00000161595895611681113510000016466446814374870693_);}
	.st6{fill:#0066CC;}
	.st7{fill:#00BAEF;}
	.st8{fill:url(#SVGID_00000168827652387538415690000001852221694381674887_);}
	.st9{fill:url(#SVGID_00000039833257652815511280000001084190250566154429_);}
	.st10{fill:url(#SVGID_00000074419653242323040290000016869886414215023798_);}
</style>
<path d="M988.9,177.1l-28,85.4l-52.3-72.9c-5.7-8.4-16.5-12.5-31.7-12.5h-30.4l-35.4,108L804,307h35.1l28.3-86.7l52.3,74.2
	c6.1,8.4,16.5,12.5,32,12.5h29.7l42.6-129.9H988.9z"/>
<path d="M804.9,241.9c6.4-18.9,5.1-34.1-3.7-44.9c-11.5-14.5-36.4-21.6-74.5-21.6c-7.4,0-14.8,0-21.9,0.7c-49.6,4-82,22.9-96.8,56.7
	c-1.3,3-2.4,6.1-3.4,9.1c-6.4,19.6-5.4,34.7,3.4,45.5c1.4,1.9,3.1,3.6,5.1,5.1c13.2,11.1,36.1,16.5,69.8,16.5c7.4,0,14.8-0.3,21.9-1
	c23.3-1.7,42.8-7.1,58.7-15.5c17.2-9.4,30-22.9,37.8-40.8C802.6,248.5,803.8,245.2,804.9,241.9z M753.3,241.5
	c-5.1,16.2-12.5,27.3-22.3,34.1c-6.7,4.7-15.5,7.8-26.3,9.1c-4.4,0.3-9.1,0.7-14.5,0.7c-11.5,0-20.2-1.4-26.3-4.4
	c-5.8-2.4-10-7.6-11.1-13.8c-1-6.8,0-15.2,3.4-25.6c3.4-10.1,7.8-18.6,13.2-25c5.3-6.4,12.3-11.2,20.2-13.8c4.9-1.8,10-3,15.2-3.7
	c4.7-0.6,9.4-0.8,14.2-0.7c11.5,0,20.2,1.4,26.3,4.4c6,2.3,10.3,7.5,11.5,13.8C757.7,223,756.6,231.4,753.3,241.5z"/>
<path d="M411.9,183.8l2-6.8h-35.1l-28,85.4l-52.3-72.9c-5.7-8.4-16.5-12.5-31.7-12.5h-30.4l-28,85.7L194,307h35l28.3-86.7l52.3,74.2
	c6.1,8.4,16.5,12.5,32,12.5h29.8l32.7-99.2L411.9,183.8z"/>
<path d="M84.3,207.1c1-3.7,4-5.4,8.8-5.4h112.9l8.4-24.3H36.9c-3.2,9.3-25.2,77.6-36.2,111.5c-2.4,7.3,1.6,15.1,8.9,17.4
	c1.4,0.5,2.8,0.7,4.3,0.7h158c2.7-7.8,5.4-15.9,8.1-23.6H66.8c-4.7,0-6.4-2-5.4-5.4l8.8-27h107.5c2-7.1,4.4-13.8,6.7-20.9H76.9
	L84.3,207.1z"/>
<path d="M922.8,334.7c0.2,3.1,2.7,5.5,5.8,5.5h32c9.3,0.1,16.9,7.4,17.4,16.6c0.4,8.7-6.3,16.2-15,16.6c-0.3,0-0.6,0-0.9,0H908
	l-0.2-10.2l49.1-0.1c3,0,5.1-3.4,5-6.4c-0.2-3.1-2.7-5.5-5.8-5.5h-32.5c-9.3-0.1-16.9-7.4-17.4-16.6c-0.5-8.7,6.3-16.2,15-16.6
	c0.3,0,0.6,0,0.9,0h54.1l0.3,10.4H928C925,328.5,922.7,331.7,922.8,334.7z"/>
<path class="st0" d="M812.5,318c0,5.2,0.9,51.5,0.8,55.5h75.9c0-3.3,0-6.6-0.1-10.1h-48.7c-2,0-3-0.7-3.1-2.3l-0.1-11.4h46.2
	c-0.2-3-0.2-6.1-0.2-9.1h-45.9l-0.3-9.8c-0.1-1.4,0.9-2.3,3-2.3h48.3c0-0.3,0-7.2,0.1-10.4H812.5z"/>
<path d="M395.6,307h177.1l8.1-23.6H467.4c-4.7,0-6.4-2-5.4-5.4l2.5-8.1H408C407.4,271.6,399,297.2,395.6,307z"/>
<path d="M437.8,177.4c-3.6,10.4-8.1,23.4-11.6,34.1h57.2l2-4.4c1-3.7,4-5.4,8.8-5.4h112.6l8.4-24.3H437.8z"/>
<path d="M411.1,258.8H468l2.8-7.8h107.6l6.8-20.9H477.9l2.5-7.5h-57C423,223.5,411.1,258.8,411.1,258.8z"/>
<path d="M837.1,330.8c-0.1-1.6,1-2.3,3-2.3h48.5l0.2-10.4h-70c-3.4,0-6.2,2.7-6.2,6.2c0,0,0,0,0,0c0,10.3,0,30.1,0,41.3
	c0,4,4.3,8.1,8.5,8.1h67.4c0.1-3.3,0.1-6.8,0.2-10.1h-48.6c-2,0-3-0.9-3.1-2.3v-11.6h46.1c-0.1-3,0-5.9,0-9h-46.1L837.1,330.8z"/>
<linearGradient id="SVGID_1_" gradientUnits="userSpaceOnUse" x1="65.68" y1="119.795" x2="404.74" y2="119.795" gradientTransform="matrix(1 0 0 -1 0 484)">
	<stop  offset="0" style="stop-color:#00BAEF"/>
	<stop  offset="0.22" style="stop-color:#00B6EB"/>
	<stop  offset="0.43" style="stop-color:#00AAE1"/>
	<stop  offset="0.65" style="stop-color:#0096CF"/>
	<stop  offset="0.87" style="stop-color:#007AB7"/>
	<stop  offset="1" style="stop-color:#0065A4"/>
</linearGradient>
<path class="st1" d="M65.7,364c0,9.4,8.8,16.9,19.6,16.9h260.7c6.9-10.8,13.2-21.9,18.7-33.5H85.2C74.4,347.5,65.7,355,65.7,364z"/>
<path class="st2" d="M506.6,318H391.7c-3.4,10-12.7,31.7-13.2,32.9h175.3c4.7-10.5,9.2-21.9,13.5-32.9H506.6z"/>
<linearGradient id="SVGID_00000111184355998371649810000007330646243228642443_" gradientUnits="userSpaceOnUse" x1="139.6" y1="34.26" x2="346.41" y2="34.26" gradientTransform="matrix(1 0 0 -1 0 484)">
	<stop  offset="0" style="stop-color:#003366"/>
	<stop  offset="0.25" style="stop-color:#003261"/>
	<stop  offset="0.53" style="stop-color:#002E54"/>
	<stop  offset="0.82" style="stop-color:#00273E"/>
	<stop  offset="1" style="stop-color:#00222C"/>
</linearGradient>
<path style="fill:url(#SVGID_00000111184355998371649810000007330646243228642443_);" d="M159.2,432.8c-10.8,0-19.6,7.8-19.6,16.9
	c0,9.4,8.8,16.9,19.6,16.9h104.6c14.3-10.1,27.7-21.4,40.2-33.8H159.2z"/>
<path class="st4" d="M306.7,449.6c-6.4,6-12.9,11.7-19.7,17.1c-7.4,5.9-15.1,11.5-22.9,16.7h171.1c20.9-6.6,39.1-18.1,54.6-33.8
	H306.7z"/>
<linearGradient id="SVGID_00000062166554044034007650000015373337106542550180_" gradientUnits="userSpaceOnUse" x1="93.72" y1="77.105" x2="380.48" y2="77.105" gradientTransform="matrix(1 0 0 -1 0 484)">
	<stop  offset="0" style="stop-color:#0066CC"/>
	<stop  offset="0.22" style="stop-color:#0065C9"/>
	<stop  offset="0.41" style="stop-color:#0061BE"/>
	<stop  offset="0.6" style="stop-color:#005BAC"/>
	<stop  offset="0.77" style="stop-color:#005292"/>
	<stop  offset="0.94" style="stop-color:#004772"/>
	<stop  offset="1" style="stop-color:#004366"/>
</linearGradient>
<path style="fill:url(#SVGID_00000062166554044034007650000015373337106542550180_);" d="M93.7,406.9c0,9.4,8.8,16.9,19.6,16.9
	h199.3c9.9-10.6,19-21.9,27.2-33.8H113.3C102.5,390,93.7,397.8,93.7,406.9z"/>
<path class="st6" d="M345.8,405.7c-4.6,6.2-9.4,12.2-14.4,18.1c-2.6,3.1-5.3,6.1-8.1,9c-2.1,2.3-4.2,4.5-6.4,6.7h182
	c9-10.6,17.1-21.9,24.3-33.8L345.8,405.7z"/>
<path class="st7" d="M373.1,361.9c-3.3,6.5-6.9,12.8-10.7,19.1c-1.9,3-3.8,6.1-5.7,9c-1.2,1.9-2.5,3.8-3.8,5.7h178
	c5.7-11,11.5-22.2,16.5-33.8H373.1z"/>
<linearGradient id="SVGID_00000147215534814500361630000011571520023064140168_" gradientUnits="userSpaceOnUse" x1="1594.63" y1="-4858.4448" x2="1933.6799" y2="-4858.4448" gradientTransform="matrix(-1 0 0 1 2536.73 4976.5898)">
	<stop  offset="0" style="stop-color:#00BAEF"/>
	<stop  offset="0.22" style="stop-color:#00B6EB"/>
	<stop  offset="0.43" style="stop-color:#00AAE1"/>
	<stop  offset="0.65" style="stop-color:#0096CF"/>
	<stop  offset="0.87" style="stop-color:#007AB7"/>
	<stop  offset="1" style="stop-color:#0065A4"/>
</linearGradient>
<path style="fill:url(#SVGID_00000147215534814500361630000011571520023064140168_);" d="M942.1,118.3c0-9.4-8.8-16.9-19.6-16.9
	H661.9c-6.9,10.8-13.2,21.9-18.7,33.5h279.4C933.3,134.9,942.1,127.4,942.1,118.3z"/>
<path class="st2" d="M501.2,164.4H616c3.4-10,12.7-31.7,13.2-32.9H453.9c-4.7,10.4-9.1,21.8-13.5,32.9H501.2z"/>
<linearGradient id="SVGID_00000038394643098768908330000000341802565382472352_" gradientUnits="userSpaceOnUse" x1="1668.54" y1="-4943.9746" x2="1875.3401" y2="-4943.9746" gradientTransform="matrix(-1 0 0 1 2536.73 4976.5898)">
	<stop  offset="0" style="stop-color:#003366"/>
	<stop  offset="0.25" style="stop-color:#003261"/>
	<stop  offset="0.53" style="stop-color:#002E54"/>
	<stop  offset="0.82" style="stop-color:#00273E"/>
	<stop  offset="1" style="stop-color:#00222C"/>
</linearGradient>
<path style="fill:url(#SVGID_00000038394643098768908330000000341802565382472352_);" d="M848.6,49.5c10.8,0,19.6-7.8,19.6-16.9
	c0-9.4-8.8-16.9-19.6-16.9H744c-14.3,10.1-27.8,21.4-40.2,33.8L848.6,49.5z"/>
<path class="st4" d="M701.1,32.8c6.4-6,12.9-11.7,19.7-17.1c7.4-5.9,17.6-13,26.7-16.7H572.6c-20.9,6.5-39.1,18.1-54.6,33.8H701.1z"
	/>
<linearGradient id="SVGID_00000150820425581260108870000010306648583852644543_" gradientUnits="userSpaceOnUse" x1="1622.6599" y1="-4901.125" x2="1909.4199" y2="-4901.125" gradientTransform="matrix(-1 0 0 1 2536.73 4976.5898)">
	<stop  offset="0" style="stop-color:#0066CC"/>
	<stop  offset="0.22" style="stop-color:#0065C9"/>
	<stop  offset="0.41" style="stop-color:#0061BE"/>
	<stop  offset="0.6" style="stop-color:#005BAC"/>
	<stop  offset="0.77" style="stop-color:#005292"/>
	<stop  offset="0.94" style="stop-color:#004772"/>
	<stop  offset="1" style="stop-color:#004366"/>
</linearGradient>
<path style="fill:url(#SVGID_00000150820425581260108870000010306648583852644543_);" d="M914.1,75.5c0-9.4-8.8-16.9-19.6-16.9
	H695.2c-9.9,10.6-19,21.9-27.2,33.8h226.6C905.3,92.4,914.1,84.5,914.1,75.5z"/>
<path class="st6" d="M662,76.6c4.6-6.2,9.4-12.2,14.4-18.1c2.6-3.1,5.3-6.1,8.1-9c2.1-2.3,4.2-4.5,6.3-6.7h-182
	c-9,10.6-17.1,21.9-24.3,33.8L662,76.6z"/>
<path class="st7" d="M634.7,120.5c3.3-6.5,6.9-12.8,10.7-19.1c1.8-3,3.7-6,5.7-9c1.2-1.9,2.5-3.8,3.8-5.7h-178
	c-5.7,11-11.5,22.2-16.5,33.8L634.7,120.5z"/>
</svg>
