<svg id="Layer_1" data-name="Layer 1" xmlns="http://www.w3.org/2000/svg" xmlns:xlink="http://www.w3.org/1999/xlink" viewBox="0 0 658.24 487"><defs><style>.cls-1{fill-rule:evenodd;fill:url(#linear-gradient);}</style><linearGradient id="linear-gradient" y1="441.66" x2="527.99" y2="441.66" gradientUnits="userSpaceOnUse"><stop offset="0" stop-color="#7ad000"/><stop offset="0.49" stop-color="#00bcf4"/><stop offset="0.67" stop-color="#009cd4"/><stop offset="1" stop-color="#00558c"/></linearGradient></defs><polygon class="cls-1" points="0 487 497.51 487 527.99 396.31 29.61 396.31 0 487 0 487"/><path d="M39.28,365.1H538.44l22.82-66.56H241.8c-13.31,0-18.07-5.7-15.21-15.21l7.15-23H74.15Z"/><path d="M158.13,0c-10,29.33-22.76,65.94-32.64,96.1H286.67l5.52-12.43C295,73.21,303.6,68.46,316.91,68.46H634.47L658.24,0Z"/><path d="M83.16,229.34H243.4l7.91-22.07h303.3c5.7-20,12.36-39,19-59H271.27l7-21.2H117.5Z"/></svg>